<?xml version="1.0" standalone="no"?>
<!DOCTYPE svg PUBLIC "-//W3C//DTD SVG 20010904//EN"
 "http://www.w3.org/TR/2001/REC-SVG-20010904/DTD/svg10.dtd">
<svg version="1.0" xmlns="http://www.w3.org/2000/svg"
 width="512.000000pt" height="512.000000pt" viewBox="0 0 512.000000 512.000000"
 preserveAspectRatio="xMidYMid meet">
<metadata>
Created by potrace 1.14, written by Peter Selinger 2001-2017
</metadata>
<g transform="translate(0.000000,512.000000) scale(0.100000,-0.100000)"
fill="#000000" stroke="none">
<path d="M2375 5110 c-22 -4 -62 -11 -90 -15 -63 -9 -176 -38 -235 -60 -25 -9
-61 -21 -80 -27 -19 -6 -71 -28 -115 -50 -435 -219 -735 -587 -859 -1053 -40
-150 -49 -223 -50 -400 -1 -203 12 -310 64 -507 80 -310 237 -633 463 -956
l68 -97 -378 -5 c-208 -3 -386 -9 -395 -13 -17 -9 -27 -32 -213 -482 -59 -143
-140 -339 -180 -435 -90 -218 -87 -212 -91 -228 -1 -7 -64 -162 -140 -345 -80
-193 -138 -346 -138 -365 0 -18 8 -40 17 -50 17 -16 161 -17 2533 -20 l2515
-2 25 25 c20 20 24 33 21 58 -4 28 -77 208 -416 1027 -38 91 -126 305 -196
475 -81 197 -136 318 -152 333 l-24 22 -380 0 -380 0 55 78 c271 379 450 783
522 1174 19 101 26 422 11 513 -4 28 -10 64 -13 80 -2 17 -14 66 -25 110 -128
512 -503 933 -999 1122 -80 31 -218 69 -285 78 -27 4 -59 10 -70 12 -36 8
-349 11 -390 3z m307 -1011 c29 -6 89 -28 133 -49 132 -64 228 -158 290 -285
43 -88 57 -147 61 -255 15 -398 -348 -702 -741 -620 -214 44 -396 216 -460
435 -29 100 -27 261 5 353 1 4 5 14 7 22 60 186 258 362 449 398 69 14 194 14
256 1z"/>
</g>
</svg>
