<?xml version="1.0" standalone="no"?>
<!DOCTYPE svg PUBLIC "-//W3C//DTD SVG 20010904//EN"
 "http://www.w3.org/TR/2001/REC-SVG-20010904/DTD/svg10.dtd">
<svg version="1.0" xmlns="http://www.w3.org/2000/svg"
 width="286.000000pt" height="286.000000pt" viewBox="0 0 286.000000 286.000000"
 preserveAspectRatio="xMidYMid meet">
<metadata>
Created by potrace 1.14, written by Peter Selinger 2001-2017
</metadata>
<g transform="translate(0.000000,286.000000) scale(0.100000,-0.100000)"
fill="#000000" stroke="none">
<path d="M1185 2821 c-196 -37 -387 -114 -555 -226 -107 -70 -302 -269 -378
-383 -106 -160 -171 -315 -214 -510 -29 -131 -31 -414 -5 -542 122 -578 545
-1010 1110 -1132 138 -30 428 -32 557 -5 387 83 704 295 920 616 61 90 145
271 175 376 46 160 58 261 52 455 -7 246 -45 390 -158 611 -132 257 -356 477
-619 609 -209 105 -355 140 -605 146 -146 3 -199 0 -280 -15z m814 -777 c17
-14 33 -39 36 -57 7 -41 -215 -962 -238 -984 -15 -15 -870 -193 -925 -193 -37
0 -92 61 -92 101 0 41 207 847 224 873 9 14 127 54 452 152 241 73 456 133
476 133 25 1 46 -7 67 -25z"/>
<path d="M1533 1832 c-193 -59 -354 -109 -357 -112 -3 -3 118 -129 269 -280
151 -151 276 -272 278 -270 2 3 43 167 91 365 47 198 89 370 92 383 4 15 2 22
-7 21 -8 0 -172 -49 -366 -107z"/>
<path d="M1073 1593 c-91 -345 -165 -644 -160 -649 5 -5 642 118 695 134 20 6
-7 36 -251 280 l-274 274 -10 -39z"/>
</g>
</svg>
